# xmcd CD database file
#
# Track frame offsets:
#	150
#	12540
#	26610
#	39557
#	56432
#	71065
#	84802
#	97377
#	109377
#	121327
#	135550
#	150052
#	162427
#	177152
#	195952
#	211257
#	223020
#	236790
#	248132
#	265477
#
# Disc length: 3751 seconds
#
# Revision: 0
# Processed by: cddbd v1.5.2PL0 Copyright (c) Steve Scherf et al.
# Submitted via: CDex 1.51
#
DISCID=170ea514
DTITLE=Kenny Dale - Collection Disc 1
DYEAR=1900
DGENRE=Country
TTITLE0=Red Hot Memories
TTITLE1=For Love
TTITLE2=The Loser
TTITLE3=Sweet Dreams
TTITLE4=We Could Be Dancing
TTITLE5=Two Hearts Tangled In Love
TTITLE6=I Don't Feel Like Livin' Today
TTITLE7=Some Kind Of Wonderful
TTITLE8=Let's Make Love
TTITLE9=Second Hands Lovin' Hands
TTITLE10=When It's Just You And Me
TTITLE11=You Are That Woman
TTITLE12=I Wish That I Could Hurt That Way Again
TTITLE13=Alabama Eye's
TTITLE14=For The Life Of Me
TTITLE15=Her Your Memory Comes Again
TTITLE16=Thank You, Ever-Lovin'
TTITLE17=The Right Combination
TTITLE18=If The World Should Ever Run Out Of Love
TTITLE19=Wish We Were Heros
EXTD=
EXTT0=
EXTT1=
EXTT2=
EXTT3=
EXTT4=
EXTT5=
EXTT6=
EXTT7=
EXTT8=
EXTT9=
EXTT10=
EXTT11=
EXTT12=
EXTT13=
EXTT14=
EXTT15=
EXTT16=
EXTT17=
EXTT18=
EXTT19=
PLAYORDER=
